# Vectary OBJ Export units=mm
mtllib Project Name.mtl
o 000_Sphere_-_baked
g Sphere_-_baked
usemtl Clean Concrete_837a011a-1e2f-44db-94c7-5272cfb7d7a2
v 0.000 34.119 0.000
v 11.356 36.342 -8.250
v 14.036 36.342 0.000
v 4.337 36.342 -13.349
v -4.337 36.342 -13.349
v -11.356 36.342 -8.250
v -14.036 36.342 0.000
v -11.356 36.342 8.250
v -4.337 36.342 13.349
v 4.337 36.342 13.349
v 11.356 36.342 8.250
v 21.600 42.794 -15.693
v 26.699 42.794 0.000
v 8.250 42.794 -25.392
v -8.250 42.794 -25.392
v -21.600 42.794 -15.693
v -26.699 42.794 0.000
v -21.600 42.794 15.693
v -8.250 42.794 25.392
v 8.250 42.794 25.392
v 21.600 42.794 15.693
v 29.730 52.843 -21.600
v 36.748 52.843 0.000
v 11.356 52.843 -34.949
v -11.356 52.843 -34.949
v -29.730 52.843 -21.600
v -36.748 52.843 0.000
v -29.730 52.843 21.600
v -11.356 52.843 34.949
v 11.356 52.843 34.949
v 29.730 52.843 21.600
v 34.949 65.505 -25.392
v 43.200 65.505 0.000
v 13.349 65.505 -41.085
v -13.349 65.505 -41.085
v -34.949 65.505 -25.392
v -43.200 65.505 0.000
v -34.949 65.505 25.392
v -13.349 65.505 41.085
v 13.349 65.505 41.085
v 34.949 65.505 25.392
v 36.748 79.542 -26.699
v 45.423 79.542 0.000
v 14.036 79.542 -43.200
v -14.036 79.542 -43.200
v -36.748 79.542 -26.699
v -45.423 79.542 0.000
v -36.748 79.542 26.699
v -14.036 79.542 43.200
v 14.036 79.542 43.200
v 36.748 79.542 26.699
v 34.949 93.578 -25.392
v 43.200 93.578 0.000
v 13.349 93.578 -41.085
v -13.349 93.578 -41.085
v -34.949 93.578 -25.392
v -43.200 93.578 0.000
v -34.949 93.578 25.392
v -13.349 93.578 41.085
v 13.349 93.578 41.085
v 34.949 93.578 25.392
v 29.730 106.241 -21.600
v 36.748 106.241 0.000
v 11.356 106.241 -34.949
v -11.356 106.241 -34.949
v -29.730 106.241 -21.600
v -36.748 106.241 0.000
v -29.730 106.241 21.600
v -11.356 106.241 34.949
v 11.356 106.241 34.949
v 29.730 106.241 21.600
v 21.600 116.290 -15.693
v 26.699 116.290 0.000
v 8.250 116.290 -25.392
v -8.250 116.290 -25.392
v -21.600 116.290 -15.693
v -26.699 116.290 0.000
v -21.600 116.290 15.693
v -8.250 116.290 25.392
v 8.250 116.290 25.392
v 21.600 116.290 15.693
v 11.356 122.742 -8.250
v 14.036 122.742 0.000
v 4.337 122.742 -13.349
v -4.337 122.742 -13.349
v -11.356 122.742 -8.250
v -14.036 122.742 0.000
v -11.356 122.742 8.250
v -4.337 122.742 13.349
v 4.337 122.742 13.349
v 11.356 122.742 8.250
v 0.000 124.965 0.000
vt 0.05000 0.00000
vt 0.10000 0.10000
vt 0.00000 0.10000
vt 0.15000 0.00000
vt 0.20000 0.10000
vt 0.25000 0.00000
vt 0.30000 0.10000
vt 0.35000 0.00000
vt 0.40000 0.10000
vt 0.45000 0.00000
vt 0.50000 0.10000
vt 0.55000 0.00000
vt 0.60000 0.10000
vt 0.65000 0.00000
vt 0.70000 0.10000
vt 0.75000 0.00000
vt 0.80000 0.10000
vt 0.85000 0.00000
vt 0.90000 0.10000
vt 0.95000 0.00000
vt 1.00000 0.10000
vt 0.10000 0.20000
vt 0.00000 0.20000
vt 0.20000 0.20000
vt 0.30000 0.20000
vt 0.40000 0.20000
vt 0.50000 0.20000
vt 0.60000 0.20000
vt 0.70000 0.20000
vt 0.80000 0.20000
vt 0.90000 0.20000
vt 1.00000 0.20000
vt 0.10000 0.30000
vt 0.00000 0.30000
vt 0.20000 0.30000
vt 0.30000 0.30000
vt 0.40000 0.30000
vt 0.50000 0.30000
vt 0.60000 0.30000
vt 0.70000 0.30000
vt 0.80000 0.30000
vt 0.90000 0.30000
vt 1.00000 0.30000
vt 0.10000 0.40000
vt 0.00000 0.40000
vt 0.20000 0.40000
vt 0.30000 0.40000
vt 0.40000 0.40000
vt 0.50000 0.40000
vt 0.60000 0.40000
vt 0.70000 0.40000
vt 0.80000 0.40000
vt 0.90000 0.40000
vt 1.00000 0.40000
vt 0.10000 0.50000
vt 0.00000 0.50000
vt 0.20000 0.50000
vt 0.30000 0.50000
vt 0.40000 0.50000
vt 0.50000 0.50000
vt 0.60000 0.50000
vt 0.70000 0.50000
vt 0.80000 0.50000
vt 0.90000 0.50000
vt 1.00000 0.50000
vt 0.10000 0.60000
vt 0.00000 0.60000
vt 0.20000 0.60000
vt 0.30000 0.60000
vt 0.40000 0.60000
vt 0.50000 0.60000
vt 0.60000 0.60000
vt 0.70000 0.60000
vt 0.80000 0.60000
vt 0.90000 0.60000
vt 1.00000 0.60000
vt 0.10000 0.70000
vt 0.00000 0.70000
vt 0.20000 0.70000
vt 0.30000 0.70000
vt 0.40000 0.70000
vt 0.50000 0.70000
vt 0.60000 0.70000
vt 0.70000 0.70000
vt 0.80000 0.70000
vt 0.90000 0.70000
vt 1.00000 0.70000
vt 0.10000 0.80000
vt 0.00000 0.80000
vt 0.20000 0.80000
vt 0.30000 0.80000
vt 0.40000 0.80000
vt 0.50000 0.80000
vt 0.60000 0.80000
vt 0.70000 0.80000
vt 0.80000 0.80000
vt 0.90000 0.80000
vt 1.00000 0.80000
vt 0.10000 0.90000
vt 0.00000 0.90000
vt 0.20000 0.90000
vt 0.30000 0.90000
vt 0.40000 0.90000
vt 0.50000 0.90000
vt 0.60000 0.90000
vt 0.70000 0.90000
vt 0.80000 0.90000
vt 0.90000 0.90000
vt 1.00000 0.90000
vt 0.05000 1.00000
vt 0.15000 1.00000
vt 0.25000 1.00000
vt 0.35000 1.00000
vt 0.45000 1.00000
vt 0.55000 1.00000
vt 0.65000 1.00000
vt 0.75000 1.00000
vt 0.85000 1.00000
vt 0.95000 1.00000
vn 0.00000 -1.00000 -0.00000
vn 0.25000 -0.95106 -0.18164
vn 0.30902 -0.95106 -0.00000
vn 0.00000 -1.00000 -0.00000
vn 0.09549 -0.95106 -0.29389
vn 0.25000 -0.95106 -0.18164
vn 0.00000 -1.00000 -0.00000
vn -0.09549 -0.95106 -0.29389
vn 0.09549 -0.95106 -0.29389
vn 0.00000 -1.00000 -0.00000
vn -0.25000 -0.95106 -0.18164
vn -0.09549 -0.95106 -0.29389
vn 0.00000 -1.00000 -0.00000
vn -0.30902 -0.95106 -0.00000
vn -0.25000 -0.95106 -0.18164
vn 0.00000 -1.00000 -0.00000
vn -0.25000 -0.95106 0.18164
vn -0.30902 -0.95106 -0.00000
vn 0.00000 -1.00000 -0.00000
vn -0.09549 -0.95106 0.29389
vn -0.25000 -0.95106 0.18164
vn 0.00000 -1.00000 -0.00000
vn 0.09549 -0.95106 0.29389
vn -0.09549 -0.95106 0.29389
vn 0.00000 -1.00000 -0.00000
vn 0.25000 -0.95106 0.18164
vn 0.09549 -0.95106 0.29389
vn 0.00000 -1.00000 -0.00000
vn 0.30902 -0.95106 -0.00000
vn 0.25000 -0.95106 0.18164
vn 0.30902 -0.95106 -0.00000
vn 0.25000 -0.95106 -0.18164
vn 0.47553 -0.80902 -0.34549
vn 0.58779 -0.80902 -0.00000
vn 0.25000 -0.95106 -0.18164
vn 0.09549 -0.95106 -0.29389
vn 0.18164 -0.80902 -0.55902
vn 0.47553 -0.80902 -0.34549
vn 0.09549 -0.95106 -0.29389
vn -0.09549 -0.95106 -0.29389
vn -0.18164 -0.80902 -0.55902
vn 0.18164 -0.80902 -0.55902
vn -0.09549 -0.95106 -0.29389
vn -0.25000 -0.95106 -0.18164
vn -0.47553 -0.80902 -0.34549
vn -0.18164 -0.80902 -0.55902
vn -0.25000 -0.95106 -0.18164
vn -0.30902 -0.95106 -0.00000
vn -0.58779 -0.80902 -0.00000
vn -0.47553 -0.80902 -0.34549
vn -0.30902 -0.95106 -0.00000
vn -0.25000 -0.95106 0.18164
vn -0.47553 -0.80902 0.34549
vn -0.58779 -0.80902 -0.00000
vn -0.25000 -0.95106 0.18164
vn -0.09549 -0.95106 0.29389
vn -0.18164 -0.80902 0.55902
vn -0.47553 -0.80902 0.34549
vn -0.09549 -0.95106 0.29389
vn 0.09549 -0.95106 0.29389
vn 0.18164 -0.80902 0.55902
vn -0.18164 -0.80902 0.55902
vn 0.09549 -0.95106 0.29389
vn 0.25000 -0.95106 0.18164
vn 0.47553 -0.80902 0.34549
vn 0.18164 -0.80902 0.55902
vn 0.25000 -0.95106 0.18164
vn 0.30902 -0.95106 -0.00000
vn 0.58779 -0.80902 -0.00000
vn 0.47553 -0.80902 0.34549
vn 0.58779 -0.80902 -0.00000
vn 0.47553 -0.80902 -0.34549
vn 0.65451 -0.58779 -0.47553
vn 0.80902 -0.58779 -0.00000
vn 0.47553 -0.80902 -0.34549
vn 0.18164 -0.80902 -0.55902
vn 0.25000 -0.58779 -0.76942
vn 0.65451 -0.58779 -0.47553
vn 0.18164 -0.80902 -0.55902
vn -0.18164 -0.80902 -0.55902
vn -0.25000 -0.58779 -0.76942
vn 0.25000 -0.58779 -0.76942
vn -0.18164 -0.80902 -0.55902
vn -0.47553 -0.80902 -0.34549
vn -0.65451 -0.58779 -0.47553
vn -0.25000 -0.58779 -0.76942
vn -0.47553 -0.80902 -0.34549
vn -0.58779 -0.80902 -0.00000
vn -0.80902 -0.58779 -0.00000
vn -0.65451 -0.58779 -0.47553
vn -0.58779 -0.80902 -0.00000
vn -0.47553 -0.80902 0.34549
vn -0.65451 -0.58779 0.47553
vn -0.80902 -0.58779 -0.00000
vn -0.47553 -0.80902 0.34549
vn -0.18164 -0.80902 0.55902
vn -0.25000 -0.58779 0.76942
vn -0.65451 -0.58779 0.47553
vn -0.18164 -0.80902 0.55902
vn 0.18164 -0.80902 0.55902
vn 0.25000 -0.58779 0.76942
vn -0.25000 -0.58779 0.76942
vn 0.18164 -0.80902 0.55902
vn 0.47553 -0.80902 0.34549
vn 0.65451 -0.58779 0.47553
vn 0.25000 -0.58779 0.76942
vn 0.47553 -0.80902 0.34549
vn 0.58779 -0.80902 -0.00000
vn 0.80902 -0.58779 -0.00000
vn 0.65451 -0.58779 0.47553
vn 0.80902 -0.58779 -0.00000
vn 0.65451 -0.58779 -0.47553
vn 0.76942 -0.30902 -0.55902
vn 0.95106 -0.30902 -0.00000
vn 0.65451 -0.58779 -0.47553
vn 0.25000 -0.58779 -0.76942
vn 0.29389 -0.30902 -0.90451
vn 0.76942 -0.30902 -0.55902
vn 0.25000 -0.58779 -0.76942
vn -0.25000 -0.58779 -0.76942
vn -0.29389 -0.30902 -0.90451
vn 0.29389 -0.30902 -0.90451
vn -0.25000 -0.58779 -0.76942
vn -0.65451 -0.58779 -0.47553
vn -0.76942 -0.30902 -0.55902
vn -0.29389 -0.30902 -0.90451
vn -0.65451 -0.58779 -0.47553
vn -0.80902 -0.58779 -0.00000
vn -0.95106 -0.30902 -0.00000
vn -0.76942 -0.30902 -0.55902
vn -0.80902 -0.58779 -0.00000
vn -0.65451 -0.58779 0.47553
vn -0.76942 -0.30902 0.55902
vn -0.95106 -0.30902 -0.00000
vn -0.65451 -0.58779 0.47553
vn -0.25000 -0.58779 0.76942
vn -0.29389 -0.30902 0.90451
vn -0.76942 -0.30902 0.55902
vn -0.25000 -0.58779 0.76942
vn 0.25000 -0.58779 0.76942
vn 0.29389 -0.30902 0.90451
vn -0.29389 -0.30902 0.90451
vn 0.25000 -0.58779 0.76942
vn 0.65451 -0.58779 0.47553
vn 0.76942 -0.30902 0.55902
vn 0.29389 -0.30902 0.90451
vn 0.65451 -0.58779 0.47553
vn 0.80902 -0.58779 -0.00000
vn 0.95106 -0.30902 -0.00000
vn 0.76942 -0.30902 0.55902
vn 0.95106 -0.30902 -0.00000
vn 0.76942 -0.30902 -0.55902
vn 0.80902 0.00000 -0.58779
vn 1.00000 0.00000 0.00000
vn 0.76942 -0.30902 -0.55902
vn 0.29389 -0.30902 -0.90451
vn 0.30902 0.00000 -0.95106
vn 0.80902 0.00000 -0.58779
vn 0.29389 -0.30902 -0.90451
vn -0.29389 -0.30902 -0.90451
vn -0.30902 0.00000 -0.95106
vn 0.30902 0.00000 -0.95106
vn -0.29389 -0.30902 -0.90451
vn -0.76942 -0.30902 -0.55902
vn -0.80902 0.00000 -0.58779
vn -0.30902 0.00000 -0.95106
vn -0.76942 -0.30902 -0.55902
vn -0.95106 -0.30902 -0.00000
vn -1.00000 0.00000 -0.00000
vn -0.80902 0.00000 -0.58779
vn -0.95106 -0.30902 -0.00000
vn -0.76942 -0.30902 0.55902
vn -0.80902 -0.00000 0.58779
vn -1.00000 0.00000 -0.00000
vn -0.76942 -0.30902 0.55902
vn -0.29389 -0.30902 0.90451
vn -0.30902 -0.00000 0.95106
vn -0.80902 -0.00000 0.58779
vn -0.29389 -0.30902 0.90451
vn 0.29389 -0.30902 0.90451
vn 0.30902 -0.00000 0.95106
vn -0.30902 -0.00000 0.95106
vn 0.29389 -0.30902 0.90451
vn 0.76942 -0.30902 0.55902
vn 0.80902 -0.00000 0.58779
vn 0.30902 -0.00000 0.95106
vn 0.76942 -0.30902 0.55902
vn 0.95106 -0.30902 -0.00000
vn 1.00000 0.00000 0.00000
vn 0.80902 -0.00000 0.58779
vn 1.00000 0.00000 0.00000
vn 0.80902 0.00000 -0.58779
vn 0.76942 0.30902 -0.55902
vn 0.95106 0.30902 0.00000
vn 0.80902 0.00000 -0.58779
vn 0.30902 0.00000 -0.95106
vn 0.29389 0.30902 -0.90451
vn 0.76942 0.30902 -0.55902
vn 0.30902 0.00000 -0.95106
vn -0.30902 0.00000 -0.95106
vn -0.29389 0.30902 -0.90451
vn 0.29389 0.30902 -0.90451
vn -0.30902 0.00000 -0.95106
vn -0.80902 0.00000 -0.58779
vn -0.76942 0.30902 -0.55902
vn -0.29389 0.30902 -0.90451
vn -0.80902 0.00000 -0.58779
vn -1.00000 0.00000 -0.00000
vn -0.95106 0.30902 -0.00000
vn -0.76942 0.30902 -0.55902
vn -1.00000 0.00000 -0.00000
vn -0.80902 -0.00000 0.58779
vn -0.76942 0.30902 0.55902
vn -0.95106 0.30902 -0.00000
vn -0.80902 -0.00000 0.58779
vn -0.30902 -0.00000 0.95106
vn -0.29389 0.30902 0.90451
vn -0.76942 0.30902 0.55902
vn -0.30902 -0.00000 0.95106
vn 0.30902 -0.00000 0.95106
vn 0.29389 0.30902 0.90451
vn -0.29389 0.30902 0.90451
vn 0.30902 -0.00000 0.95106
vn 0.80902 -0.00000 0.58779
vn 0.76942 0.30902 0.55902
vn 0.29389 0.30902 0.90451
vn 0.80902 -0.00000 0.58779
vn 1.00000 0.00000 0.00000
vn 0.95106 0.30902 0.00000
vn 0.76942 0.30902 0.55902
vn 0.95106 0.30902 0.00000
vn 0.76942 0.30902 -0.55902
vn 0.65451 0.58779 -0.47553
vn 0.80902 0.58779 0.00000
vn 0.76942 0.30902 -0.55902
vn 0.29389 0.30902 -0.90451
vn 0.25000 0.58779 -0.76942
vn 0.65451 0.58779 -0.47553
vn 0.29389 0.30902 -0.90451
vn -0.29389 0.30902 -0.90451
vn -0.25000 0.58779 -0.76942
vn 0.25000 0.58779 -0.76942
vn -0.29389 0.30902 -0.90451
vn -0.76942 0.30902 -0.55902
vn -0.65451 0.58779 -0.47553
vn -0.25000 0.58779 -0.76942
vn -0.76942 0.30902 -0.55902
vn -0.95106 0.30902 -0.00000
vn -0.80902 0.58779 0.00000
vn -0.65451 0.58779 -0.47553
vn -0.95106 0.30902 -0.00000
vn -0.76942 0.30902 0.55902
vn -0.65451 0.58779 0.47553
vn -0.80902 0.58779 0.00000
vn -0.76942 0.30902 0.55902
vn -0.29389 0.30902 0.90451
vn -0.25000 0.58779 0.76942
vn -0.65451 0.58779 0.47553
vn -0.29389 0.30902 0.90451
vn 0.29389 0.30902 0.90451
vn 0.25000 0.58779 0.76942
vn -0.25000 0.58779 0.76942
vn 0.29389 0.30902 0.90451
vn 0.76942 0.30902 0.55902
vn 0.65451 0.58779 0.47553
vn 0.25000 0.58779 0.76942
vn 0.76942 0.30902 0.55902
vn 0.95106 0.30902 0.00000
vn 0.80902 0.58779 0.00000
vn 0.65451 0.58779 0.47553
vn 0.80902 0.58779 0.00000
vn 0.65451 0.58779 -0.47553
vn 0.47553 0.80902 -0.34549
vn 0.58779 0.80902 0.00000
vn 0.65451 0.58779 -0.47553
vn 0.25000 0.58779 -0.76942
vn 0.18164 0.80902 -0.55902
vn 0.47553 0.80902 -0.34549
vn 0.25000 0.58779 -0.76942
vn -0.25000 0.58779 -0.76942
vn -0.18164 0.80902 -0.55902
vn 0.18164 0.80902 -0.55902
vn -0.25000 0.58779 -0.76942
vn -0.65451 0.58779 -0.47553
vn -0.47553 0.80902 -0.34549
vn -0.18164 0.80902 -0.55902
vn -0.65451 0.58779 -0.47553
vn -0.80902 0.58779 0.00000
vn -0.58779 0.80902 0.00000
vn -0.47553 0.80902 -0.34549
vn -0.80902 0.58779 0.00000
vn -0.65451 0.58779 0.47553
vn -0.47553 0.80902 0.34549
vn -0.58779 0.80902 0.00000
vn -0.65451 0.58779 0.47553
vn -0.25000 0.58779 0.76942
vn -0.18164 0.80902 0.55902
vn -0.47553 0.80902 0.34549
vn -0.25000 0.58779 0.76942
vn 0.25000 0.58779 0.76942
vn 0.18164 0.80902 0.55902
vn -0.18164 0.80902 0.55902
vn 0.25000 0.58779 0.76942
vn 0.65451 0.58779 0.47553
vn 0.47553 0.80902 0.34549
vn 0.18164 0.80902 0.55902
vn 0.65451 0.58779 0.47553
vn 0.80902 0.58779 0.00000
vn 0.58779 0.80902 0.00000
vn 0.47553 0.80902 0.34549
vn 0.58779 0.80902 0.00000
vn 0.47553 0.80902 -0.34549
vn 0.25000 0.95106 -0.18164
vn 0.30902 0.95106 0.00000
vn 0.47553 0.80902 -0.34549
vn 0.18164 0.80902 -0.55902
vn 0.09549 0.95106 -0.29389
vn 0.25000 0.95106 -0.18164
vn 0.18164 0.80902 -0.55902
vn -0.18164 0.80902 -0.55902
vn -0.09549 0.95106 -0.29389
vn 0.09549 0.95106 -0.29389
vn -0.18164 0.80902 -0.55902
vn -0.47553 0.80902 -0.34549
vn -0.25000 0.95106 -0.18164
vn -0.09549 0.95106 -0.29389
vn -0.47553 0.80902 -0.34549
vn -0.58779 0.80902 0.00000
vn -0.30902 0.95106 0.00000
vn -0.25000 0.95106 -0.18164
vn -0.58779 0.80902 0.00000
vn -0.47553 0.80902 0.34549
vn -0.25000 0.95106 0.18164
vn -0.30902 0.95106 0.00000
vn -0.47553 0.80902 0.34549
vn -0.18164 0.80902 0.55902
vn -0.09549 0.95106 0.29389
vn -0.25000 0.95106 0.18164
vn -0.18164 0.80902 0.55902
vn 0.18164 0.80902 0.55902
vn 0.09549 0.95106 0.29389
vn -0.09549 0.95106 0.29389
vn 0.18164 0.80902 0.55902
vn 0.47553 0.80902 0.34549
vn 0.25000 0.95106 0.18164
vn 0.09549 0.95106 0.29389
vn 0.47553 0.80902 0.34549
vn 0.58779 0.80902 0.00000
vn 0.30902 0.95106 0.00000
vn 0.25000 0.95106 0.18164
vn 0.30902 0.95106 0.00000
vn 0.25000 0.95106 -0.18164
vn 0.00000 1.00000 0.00000
vn 0.25000 0.95106 -0.18164
vn 0.09549 0.95106 -0.29389
vn 0.00000 1.00000 0.00000
vn 0.09549 0.95106 -0.29389
vn -0.09549 0.95106 -0.29389
vn 0.00000 1.00000 0.00000
vn -0.09549 0.95106 -0.29389
vn -0.25000 0.95106 -0.18164
vn 0.00000 1.00000 0.00000
vn -0.25000 0.95106 -0.18164
vn -0.30902 0.95106 0.00000
vn 0.00000 1.00000 0.00000
vn -0.30902 0.95106 0.00000
vn -0.25000 0.95106 0.18164
vn 0.00000 1.00000 0.00000
vn -0.25000 0.95106 0.18164
vn -0.09549 0.95106 0.29389
vn 0.00000 1.00000 0.00000
vn -0.09549 0.95106 0.29389
vn 0.09549 0.95106 0.29389
vn 0.00000 1.00000 0.00000
vn 0.09549 0.95106 0.29389
vn 0.25000 0.95106 0.18164
vn 0.00000 1.00000 0.00000
vn 0.25000 0.95106 0.18164
vn 0.30902 0.95106 0.00000
vn 0.00000 1.00000 0.00000
f 1/1/1 2/2/2 3/3/3 
f 1/4/4 4/5/5 2/2/6 
f 1/6/7 5/7/8 4/5/9 
f 1/8/10 6/9/11 5/7/12 
f 1/10/13 7/11/14 6/9/15 
f 1/12/16 8/13/17 7/11/18 
f 1/14/19 9/15/20 8/13/21 
f 1/16/22 10/17/23 9/15/24 
f 1/18/25 11/19/26 10/17/27 
f 1/20/28 3/21/29 11/19/30 
f 2/2/32 12/22/33 13/23/34 3/3/31 
f 4/5/36 14/24/37 12/22/38 2/2/35 
f 5/7/40 15/25/41 14/24/42 4/5/39 
f 6/9/44 16/26/45 15/25/46 5/7/43 
f 7/11/48 17/27/49 16/26/50 6/9/47 
f 8/13/52 18/28/53 17/27/54 7/11/51 
f 9/15/56 19/29/57 18/28/58 8/13/55 
f 10/17/60 20/30/61 19/29/62 9/15/59 
f 11/19/64 21/31/65 20/30/66 10/17/63 
f 3/21/68 13/32/69 21/31/70 11/19/67 
f 12/22/72 22/33/73 23/34/74 13/23/71 
f 14/24/76 24/35/77 22/33/78 12/22/75 
f 15/25/80 25/36/81 24/35/82 14/24/79 
f 16/26/84 26/37/85 25/36/86 15/25/83 
f 17/27/88 27/38/89 26/37/90 16/26/87 
f 18/28/92 28/39/93 27/38/94 17/27/91 
f 19/29/96 29/40/97 28/39/98 18/28/95 
f 20/30/100 30/41/101 29/40/102 19/29/99 
f 21/31/104 31/42/105 30/41/106 20/30/103 
f 13/32/108 23/43/109 31/42/110 21/31/107 
f 22/33/112 32/44/113 33/45/114 23/34/111 
f 24/35/116 34/46/117 32/44/118 22/33/115 
f 25/36/120 35/47/121 34/46/122 24/35/119 
f 26/37/124 36/48/125 35/47/126 25/36/123 
f 27/38/128 37/49/129 36/48/130 26/37/127 
f 28/39/132 38/50/133 37/49/134 27/38/131 
f 29/40/136 39/51/137 38/50/138 28/39/135 
f 30/41/140 40/52/141 39/51/142 29/40/139 
f 31/42/144 41/53/145 40/52/146 30/41/143 
f 23/43/148 33/54/149 41/53/150 31/42/147 
f 32/44/152 42/55/153 43/56/154 33/45/151 
f 34/46/156 44/57/157 42/55/158 32/44/155 
f 35/47/160 45/58/161 44/57/162 34/46/159 
f 36/48/164 46/59/165 45/58/166 35/47/163 
f 37/49/168 47/60/169 46/59/170 36/48/167 
f 38/50/172 48/61/173 47/60/174 37/49/171 
f 39/51/176 49/62/177 48/61/178 38/50/175 
f 40/52/180 50/63/181 49/62/182 39/51/179 
f 41/53/184 51/64/185 50/63/186 40/52/183 
f 33/54/188 43/65/189 51/64/190 41/53/187 
f 42/55/192 52/66/193 53/67/194 43/56/191 
f 44/57/196 54/68/197 52/66/198 42/55/195 
f 45/58/200 55/69/201 54/68/202 44/57/199 
f 46/59/204 56/70/205 55/69/206 45/58/203 
f 47/60/208 57/71/209 56/70/210 46/59/207 
f 48/61/212 58/72/213 57/71/214 47/60/211 
f 49/62/216 59/73/217 58/72/218 48/61/215 
f 50/63/220 60/74/221 59/73/222 49/62/219 
f 51/64/224 61/75/225 60/74/226 50/63/223 
f 43/65/228 53/76/229 61/75/230 51/64/227 
f 52/66/232 62/77/233 63/78/234 53/67/231 
f 54/68/236 64/79/237 62/77/238 52/66/235 
f 55/69/240 65/80/241 64/79/242 54/68/239 
f 56/70/244 66/81/245 65/80/246 55/69/243 
f 57/71/248 67/82/249 66/81/250 56/70/247 
f 58/72/252 68/83/253 67/82/254 57/71/251 
f 59/73/256 69/84/257 68/83/258 58/72/255 
f 60/74/260 70/85/261 69/84/262 59/73/259 
f 61/75/264 71/86/265 70/85/266 60/74/263 
f 53/76/268 63/87/269 71/86/270 61/75/267 
f 62/77/272 72/88/273 73/89/274 63/78/271 
f 64/79/276 74/90/277 72/88/278 62/77/275 
f 65/80/280 75/91/281 74/90/282 64/79/279 
f 66/81/284 76/92/285 75/91/286 65/80/283 
f 67/82/288 77/93/289 76/92/290 66/81/287 
f 68/83/292 78/94/293 77/93/294 67/82/291 
f 69/84/296 79/95/297 78/94/298 68/83/295 
f 70/85/300 80/96/301 79/95/302 69/84/299 
f 71/86/304 81/97/305 80/96/306 70/85/303 
f 63/87/308 73/98/309 81/97/310 71/86/307 
f 72/88/312 82/99/313 83/100/314 73/89/311 
f 74/90/316 84/101/317 82/99/318 72/88/315 
f 75/91/320 85/102/321 84/101/322 74/90/319 
f 76/92/324 86/103/325 85/102/326 75/91/323 
f 77/93/328 87/104/329 86/103/330 76/92/327 
f 78/94/332 88/105/333 87/104/334 77/93/331 
f 79/95/336 89/106/337 88/105/338 78/94/335 
f 80/96/340 90/107/341 89/106/342 79/95/339 
f 81/97/344 91/108/345 90/107/346 80/96/343 
f 73/98/348 83/109/349 91/108/350 81/97/347 
f 83/100/351 82/99/352 92/110/353 
f 82/99/354 84/101/355 92/111/356 
f 84/101/357 85/102/358 92/112/359 
f 85/102/360 86/103/361 92/113/362 
f 86/103/363 87/104/364 92/114/365 
f 87/104/366 88/105/367 92/115/368 
f 88/105/369 89/106/370 92/116/371 
f 89/106/372 90/107/373 92/117/374 
f 90/107/375 91/108/376 92/118/377 
f 91/108/378 83/109/379 92/119/380 
